<svg width="18" height="20" fill="none" xmlns="http://www.w3.org/2000/svg"><path d="M11.197 13.645a3.181 3.181 0 00-3.178 3.177A3.181 3.181 0 0011.197 20a3.181 3.181 0 003.177-3.178 3.182 3.182 0 00-3.177-3.177zm0 4.112a.935.935 0 11.001-1.87.935.935 0 01-.001 1.87z" fill="#0500FF"/><path d="M10.73 0c.288.069.48.162.574.28l6.099 7.63c.112.14.174.317.174.501v7.629c0 .432-.335.782-.748.782h-.792a.756.756 0 01-.745-.663c-.294-2.352-2.087-3.812-4.257-3.812-2.169 0-3.962 1.46-4.256 3.812a.756.756 0 01-.745.663H1a1 1 0 01-1-1V1a1 1 0 011-1h9.73zM5.989 6.26c0 .432.335.782.748.782L12.886 7c.634 0 .905-.49.5-1l-3-3.5a3.008 3.008 0 00-.222-.237A.938.938 0 009.502 2H7.178a.868.868 0 00-.53.169c-.264.201-.652.546-.652.831l-.008 3.26z" fill="#0500FF"/></svg>